<svg width="80" height="80" viewBox="0 0 80 80" fill="none" xmlns="http://www.w3.org/2000/svg">
<path d="M49.0581 57.0284C49.3538 56.7222 49.5862 56.3607 49.742 55.9646C49.8978 55.5685 49.974 55.1456 49.9661 54.72C49.9583 54.2944 49.8666 53.8746 49.6963 53.4845C49.526 53.0944 49.2804 52.7417 48.9736 52.4467L36.1332 40.0714L48.5085 27.231C49.1049 26.6122 49.431 25.7818 49.4151 24.9226C49.3993 24.0634 49.0428 23.2456 48.424 22.6492C47.8052 22.0529 46.9749 21.7267 46.1156 21.7426C45.2564 21.7584 44.4386 22.115 43.8423 22.7337L29.2024 37.9238C28.9067 38.23 28.6743 38.5915 28.5185 38.9876C28.3627 39.3837 28.2865 39.8066 28.2944 40.2322C28.3022 40.6578 28.3939 41.0776 28.5642 41.4677C28.7346 41.8578 28.9801 42.2105 29.2869 42.5055L44.477 57.1454C45.7346 58.3574 47.8142 58.319 49.0581 57.0284Z" fill="white"/>
</svg>
