<svg width="34" height="35" viewBox="0 0 34 35" fill="none" xmlns="http://www.w3.org/2000/svg">
<path d="M16.9835 0.420898C7.7835 0.420898 0.333496 8.08406 0.333496 17.5262C0.333496 26.9683 7.7835 34.6314 16.9835 34.6314C26.2002 34.6314 33.6668 26.9683 33.6668 17.5262C33.6668 8.08406 26.2002 0.420898 16.9835 0.420898ZM17.0002 31.2104C9.6335 31.2104 3.66683 25.0867 3.66683 17.5262C3.66683 9.96563 9.6335 3.84195 17.0002 3.84195C24.3668 3.84195 30.3335 9.96563 30.3335 17.5262C30.3335 25.0867 24.3668 31.2104 17.0002 31.2104Z" fill="#247BA0"/>
<path d="M17.8335 8.97363H15.3335V19.2368L24.0835 24.6249L25.3335 22.521L17.8335 17.9539V8.97363Z" fill="#247BA0"/>
</svg>
