<svg width="37" height="35" viewBox="0 0 37 35" fill="none" xmlns="http://www.w3.org/2000/svg">
<path d="M29.5762 12.899C30.9949 12.8983 32.3836 13.3042 33.5755 14.0681C34.7675 14.8319 35.7119 15.9212 36.2955 17.205C36.879 18.4888 37.0768 19.9126 36.8651 21.3053C36.6534 22.698 36.0412 24.0004 35.102 25.0561V33.4681C35.1025 33.7029 35.0422 33.9339 34.927 34.1389C34.8118 34.344 34.6454 34.5163 34.444 34.6392C34.2425 34.7622 34.0126 34.8317 33.7762 34.8412C33.5399 34.8507 33.3051 34.7997 33.0943 34.6933L32.9285 34.5927L29.5762 32.2666L26.2239 34.5927C26.0303 34.7269 25.8053 34.8096 25.5704 34.8329C25.3354 34.8562 25.0983 34.8193 24.8818 34.7258C24.6653 34.6323 24.4766 34.4852 24.3336 34.2986C24.1906 34.112 24.0982 33.8922 24.0652 33.6601L24.0523 33.4681V25.0524C23.1144 23.9968 22.5032 22.6949 22.2921 21.3029C22.081 19.911 22.2789 18.4881 22.862 17.2051C23.4452 15.922 24.3889 14.8333 25.5798 14.0695C26.7708 13.3057 28.1584 12.8992 29.5762 12.899ZM32.3391 26.9982C31.4613 27.3506 30.5231 27.5313 29.5762 27.5303C28.6293 27.5313 27.6912 27.3506 26.8133 26.9982V30.8366L28.786 29.4706C28.988 29.33 29.2241 29.2458 29.47 29.2265C29.7158 29.2072 29.9624 29.2536 30.1841 29.3608L30.3683 29.4706L32.3391 30.8366V26.9982ZM31.8786 0.105469C33.1685 0.105405 34.4098 0.593897 35.3494 1.4713C36.2889 2.34871 36.8559 3.54893 36.9347 4.82714L36.9439 5.13436L36.9458 14.7277C36.1988 13.7403 35.2591 12.9125 34.1829 12.2937L34.181 5.13436C34.1813 4.56846 33.9701 4.02258 33.5883 3.60235C33.2066 3.18212 32.6814 2.91742 32.1144 2.85947L31.8786 2.8485H5.17075C4.60076 2.84824 4.05093 3.05791 3.62766 3.43692C3.20439 3.81594 2.93777 4.33736 2.8794 4.90029L2.86835 5.13436V22.5069C2.86835 23.6901 3.77458 24.6648 4.93499 24.78L5.17075 24.7928L21.6044 24.7946L21.8309 25.1658L22.0778 25.5242L22.2085 25.6961L22.2067 27.5358H5.17075C3.88058 27.5358 2.63902 27.0471 1.69942 26.1693C0.759831 25.2915 0.193027 24.0908 0.114679 22.8123L0.105469 22.5069V5.13436C0.105405 3.85376 0.597432 2.62137 1.48119 1.68857C2.36494 0.755773 3.57385 0.192846 4.86131 0.114612L5.17075 0.105469H31.8786ZM29.5762 15.642C28.3547 15.642 27.1832 16.1238 26.3195 16.9813C25.4557 17.8388 24.9705 19.0019 24.9705 20.2146C24.9705 21.4274 25.4557 22.5904 26.3195 23.448C27.1832 24.3055 28.3547 24.7873 29.5762 24.7873C30.7977 24.7873 31.9692 24.3055 32.833 23.448C33.6967 22.5904 34.182 21.4274 34.182 20.2146C34.182 19.0019 33.6967 17.8388 32.833 16.9813C31.9692 16.1238 30.7977 15.642 29.5762 15.642ZM17.1432 17.4707C17.4933 17.4708 17.8302 17.6028 18.0859 17.84C18.3417 18.0773 18.4972 18.402 18.5211 18.7487C18.5449 19.0954 18.4353 19.4382 18.2145 19.7077C17.9936 19.9773 17.6779 20.1536 17.3311 20.2009L17.1432 20.2137H8.8546C8.50459 20.2136 8.16767 20.0816 7.91192 19.8444C7.65617 19.6071 7.50065 19.2824 7.47679 18.9357C7.45294 18.589 7.56252 18.2463 7.7834 17.9767C8.00428 17.7071 8.31998 17.5309 8.66672 17.4835L8.8546 17.4707H17.1432ZM28.1948 7.41291C28.5448 7.41301 28.8817 7.54502 29.1375 7.78225C29.3932 8.01949 29.5487 8.34426 29.5726 8.69094C29.5964 9.03763 29.4869 9.38038 29.266 9.64994C29.0451 9.9195 28.7294 10.0958 28.3827 10.1431L28.1948 10.1559H8.8546C8.50459 10.1558 8.16767 10.0238 7.91192 9.7866C7.65617 9.54936 7.50065 9.22459 7.47679 8.87791C7.45294 8.53122 7.56252 8.18847 7.7834 7.91891C8.00428 7.64935 8.31998 7.47307 8.66672 7.42571L8.8546 7.41291H28.1948Z" fill="#247BA0"/>
</svg>
